<?xml version="1.0" encoding="utf-8"?>
<!-- Generator: Adobe Illustrator 27.0.0, SVG Export Plug-In . SVG Version: 6.00 Build 0)  -->
<svg version="1.1" id="Layer_1" xmlns="http://www.w3.org/2000/svg" xmlns:xlink="http://www.w3.org/1999/xlink" x="0px" y="0px"
	 viewBox="0 0 512 512" style="enable-background:new 0 0 512 512;" xml:space="preserve">
<style type="text/css">
	.st0{fill:#CD1309;}
	.st1{fill:#FFFF00;}
</style>
<g id="XMLID_1_">
	<g id="XMLID_2_">
		<g id="XMLID_3_">
			<g id="XMLID_4_">
				<path id="XMLID_12_" class="st0" d="M0,0h512v512H0V0z"/>
				<path id="XMLID_11_" class="st1" d="M117.03,302.08c0-5.85-0.73-10.97-2.93-15.36c-2.93-3.66-8.05-4.39-16.09-4.39H79.73v21.94
					h5.85c8.78,0,10.24-2.19,10.24-13.17h7.31v36.57h-7.31c0-12.43-1.46-15.36-10.24-15.36h-5.85v19.02c0,6.58,0.73,6.58,7.31,6.58
					h8.05v8.78H50.47v-8.78h4.39c5.85,0,8.05-0.73,8.05-6.58c0-43.15,0,0,0-43.15c0-5.85-2.19-6.58-8.05-6.58h-4.39v-8.05
					c74.61,0,0,0,74.61,0v28.53H117.03L117.03,302.08z"/>
				<path class="st1" d="M285.26,326.22h-6.58c0,8.05,0,11.7-4.39,11.7c-2.19,0-4.39-2.19-4.39-6.58c0-1.46,0-2.93,0-3.66
					c-0.73-10.24-2.93-14.63-15.36-18.29c13.9-1.46,21.94-8.05,21.94-18.29c0-12.43-8.78-17.55-27.06-17.55h-50.47v8.05h5.85
					c6.58,0,7.31,0.73,7.31,6.58v43.15c0,5.12-2.93,6.58-7.31,6.58h-5.12c-4.39,0-6.58-1.46-8.78-6.58l-23.41-57.78h-17.55
					l-24.87,57.78c-2.19,5.12-3.66,6.58-9.51,6.58h-2.93v8.78h38.03v-8.78h-8.05c-3.66,0-5.85,0-5.85-2.19
					c0-0.73,0.73-2.19,1.46-3.66l3.66-8.78h27.79l3.66,8.05c0.73,1.46,0.73,2.93,0.73,3.66c0,2.93-2.19,2.93-5.85,2.93h-8.05v8.78
					h82.65v-8.78h-6.58c-6.58,0-7.31,0-7.31-6.58v-19.02h7.31c12.43,0,16.09,2.19,16.82,14.63v8.05
					c0.73,10.24,7.31,13.17,17.55,13.17c8.78,0,14.63-5.12,14.63-19.02C285.26,328.41,285.26,326.95,285.26,326.22z M144.82,314.51
					l11.7-27.79l10.97,27.79H144.82z M244.3,303.54l-15.36,0.73V281.6h15.36c10.24,0,15.36,2.93,15.36,10.97v0.73
					C259.66,300.62,254.54,303.54,244.3,303.54z"/>
				<path id="XMLID_7_" class="st1" d="M350.35,296.96c-3.66-10.97-10.97-16.09-22.67-16.09s-21.21,9.51-21.21,28.53
					s7.31,28.53,21.21,29.26c9.51,0,18.29-5.12,18.29-13.17v-4.39c0-5.12-0.73-5.12-8.05-5.12h-3.66v-8.05h34.38v8.05h-2.93
					c-5.12,0-5.85,0-5.85,5.85v24.14h-6.58l-3.66-5.85c-6.58,5.12-16.09,8.05-24.87,8.05c-10.24,0-18.29-3.66-24.87-10.97
					c-7.31-7.31-11.7-16.82-11.7-27.79c0-11.7,3.66-20.48,10.97-27.79c6.58-6.58,16.09-9.51,26.33-9.51
					c8.05,0,17.55,2.19,22.67,8.05l3.66-8.05h5.85v24.87H350.35z"/>
				<path class="st1" d="M416.91,347.43c-24.14,0-43.15-14.63-43.15-38.03c0-22.67,19.02-37.3,43.15-37.3s42.42,14.63,42.42,38.03
					C459.34,332.8,441.05,347.43,416.91,347.43z M441.78,310.13c0-26.33-17.55-29.26-24.87-29.26c-13.9,0-24.87,10.24-24.87,29.26
					c0,19.02,10.97,29.26,24.87,29.26C424.23,339.38,441.78,335.73,441.78,310.13z"/>
				<path id="XMLID_5_" class="st1" d="M302.08,223.09c-2.19,4.39-7.31,5.12-16.09,5.12H267.7V179.2c0-5.85,1.46-6.58,8.78-6.58
					h5.12v-8.78h-43.89v8.78h3.66c6.58,0,10.24,0,10.24,6.58v43.15c0,5.85-2.93,6.58-9.51,6.58h-3.66v8.05h75.34v-29.26
					c0,0-7.31,0-8.78,0C305.01,214.31,304.27,218.7,302.08,223.09z"/>
				<path id="XMLID_14_" class="st1" d="M206.26,228.21h-23.41v-24.87h5.12c8.78,0,10.24,1.46,10.97,13.9h8.05v-36.57h-8.05
					c-0.73,10.97-2.19,13.9-10.97,13.9h-5.12v-21.94h19.75c14.63,0,19.02,2.93,19.75,19.75h8.05v-28.53c-76.8,0-4.39,0-72.41,0
					h-35.84v8.78h5.12c4.39,0,5.85,0.73,5.85,2.93c0,1.46,0,2.93-0.73,5.85l-13.9,36.57c0,0,0,0-0.73,0
					c-6.58-18.29-15.36-39.5-15.36-39.5c-0.73-1.46-0.73-2.19-0.73-2.93c0-2.19,1.46-2.93,5.12-2.93h5.85v-8.78H73.87v8.78h5.12
					c5.85,0,8.05,2.93,8.78,8.78l-14.63,36.57c0,0,0,0-0.73,0c-6.58-19.75-15.36-40.23-15.36-40.23c-0.73-0.73,0-1.46,0-2.19
					c-0.73-2.19,1.46-2.93,5.85-2.93h2.93v-8.78H29.26v8.78h1.46c5.12,0,9.51,2.93,11.7,9.51l21.94,54.86h13.17l16.09-40.23
					l16.82,40.23h13.17l20.48-55.59c2.93-6.58,4.39-8.78,10.97-8.78h0.73c6.58,0,10.24,0,10.24,6.58c0,43.15,0,0,0,43.15
					c0,5.85-3.66,6.58-10.24,6.58h-4.39v8.05h80.46v-29.26h-8.78C222.35,222.35,219.43,228.21,206.26,228.21z"/>
				<path id="XMLID_15_" class="st1" d="M383.27,207.73c0,6.58-0.73,10.97-2.93,15.36c-2.19,4.39-7.31,5.12-16.09,5.12H346.7V179.2
					c0-5.85,1.46-6.58,8.05-6.58h5.85v-8.78h-44.62v8.78h5.12c5.85,0,8.78,0,8.78,6.58v43.15c0,5.85-2.19,6.58-8.78,6.58h-1.46v8.05
					h72.41v-29.26C392.05,207.73,384.73,207.73,383.27,207.73z"/>
				<path id="XMLID_16_" class="st1" d="M466.65,215.77c0,16.82-13.17,22.67-32.18,22.67c-11.7,0-23.41-6.58-25.6-8.78l-2.93,7.31
					h-7.31v-29.26h8.78c2.19,13.9,11.7,19.75,24.87,20.48c11.7,0.73,19.75-2.19,20.48-10.24c1.46-9.51-8.78-8.78-17.55-10.24
					l-12.43-2.19c-18.29-3.66-24.87-8.78-24.87-21.21c-0.73-13.17,11.7-21.94,27.79-21.94c8.05,0,18.29,1.46,25.6,7.31l3.66-5.85
					h6.58v25.6h-8.05c-1.46-13.9-16.09-18.29-27.79-18.29c-8.78,0.73-13.9,5.12-13.9,10.97s5.12,6.58,11.7,8.05l15.36,2.19
					C454.95,195.29,466.65,198.22,466.65,215.77z"/>
			</g>
		</g>
	</g>
</g>
</svg>
